<svg id="Capa_1" enable-background="new 0 0 512 512" height="512" viewBox="0 0 512 512" width="512" xmlns="http://www.w3.org/2000/svg"><g><path d="m383.271 436.184c9.649 0 17.5 7.851 17.5 17.5v12.274c0 1.379-1.121 2.5-2.5 2.5h-38.594c-4.143 0-7.5 3.357-7.5 7.5s3.357 7.5 7.5 7.5h38.594c9.649 0 17.5-7.851 17.5-17.5v-12.274c0-17.921-14.579-32.5-32.5-32.5h-33.828l-20.592-58.006h160.649c12.406 0 22.5-10.094 22.5-22.5v-289.636c0-12.406-10.094-22.5-22.5-22.5h-75.786c-4.143 0-7.5 3.357-7.5 7.5s3.357 7.5 7.5 7.5h75.786c4.136 0 7.5 3.364 7.5 7.5v289.636c0 4.136-3.364 7.5-7.5 7.5h-467c-4.136 0-7.5-3.364-7.5-7.5v-289.636c0-4.136 3.364-7.5 7.5-7.5h358.271c4.143 0 7.5-3.357 7.5-7.5s-3.357-7.5-7.5-7.5h-358.271c-12.406 0-22.5 10.094-22.5 22.5v289.636c0 12.406 10.094 22.5 22.5 22.5h160.649l-20.592 58.006h-33.827c-17.921 0-32.5 14.579-32.5 32.5v12.274c0 9.649 7.851 17.5 17.5 17.5h213.26c4.143 0 7.5-3.357 7.5-7.5s-3.357-7.5-7.5-7.5h-213.261c-1.379 0-2.5-1.121-2.5-2.5v-12.274c0-9.649 7.851-17.5 17.5-17.5zm-49.744-15h-155.054l20.592-58.006h113.87z"/><path d="m73.848 168.626c0-4.142-3.358-7.5-7.5-7.5s-7.5 3.358-7.5 7.5c0 4.142 3.358 7.5 7.5 7.5s7.5-3.358 7.5-7.5z"/><path d="m66.348 224.568c-4.142 0-7.5 3.358-7.5 7.5 0 4.142 3.358 7.5 7.5 7.5s7.5-3.358 7.5-7.5c0-4.142-3.358-7.5-7.5-7.5z"/><path d="m131.367 145.68c-2.93-2.928-7.678-2.928-10.607 0-30.143 30.143-30.143 79.19 0 109.334 1.465 1.464 3.385 2.196 5.304 2.196s3.839-.732 5.304-2.196c2.929-2.93 2.929-7.678 0-10.607-24.295-24.294-24.295-63.825 0-88.119 2.928-2.931 2.928-7.679-.001-10.608z"/><path d="m187.325 110.152h137.153c4.143 0 7.5-3.357 7.5-7.5 0-4.142-3.357-7.5-7.5-7.5h-137.153c-4.143 0-7.5 3.358-7.5 7.5 0 4.143 3.358 7.5 7.5 7.5z"/><path d="m443.152 141.756h-255.827c-4.143 0-7.5 3.357-7.5 7.5s3.357 7.5 7.5 7.5h255.827c4.143 0 7.5-3.357 7.5-7.5s-3.357-7.5-7.5-7.5z"/><path d="m443.152 188.359h-255.827c-4.143 0-7.5 3.357-7.5 7.5s3.357 7.5 7.5 7.5h255.827c4.143 0 7.5-3.357 7.5-7.5 0-4.142-3.357-7.5-7.5-7.5z"/><path d="m443.152 234.963h-255.827c-4.143 0-7.5 3.357-7.5 7.5s3.357 7.5 7.5 7.5h255.827c4.143 0 7.5-3.357 7.5-7.5s-3.357-7.5-7.5-7.5z"/><path d="m443.152 281.567h-63.858c-4.143 0-7.5 3.357-7.5 7.5s3.357 7.5 7.5 7.5h63.858c4.143 0 7.5-3.357 7.5-7.5 0-4.142-3.357-7.5-7.5-7.5z"/><path d="m187.325 281.567c-4.143 0-7.5 3.357-7.5 7.5s3.357 7.5 7.5 7.5h159.282c4.143 0 7.5-3.357 7.5-7.5s-3.357-7.5-7.5-7.5z"/></g></svg>